<svg xmlns="http://www.w3.org/2000/svg" viewBox="0 0 129.97 25.44"><defs><style>.cls-1{fill:#a8934a;}.cls-2{fill:#37373b;}</style></defs><title>logotipo-lavvi</title><g id="Camada_2" data-name="Camada 2"><g id="Camada_1-2" data-name="Camada 1"><path class="cls-1" d="M4.52,15.54C2.93,14.54.4,13.25,0,11.37a21.65,21.65,0,0,0,0,2.36,6,6,0,0,0,.81,2.6c.9,1.4,2.66,1.68,3.61,3a11.17,11.17,0,0,1,2.08,6.12c.92-1.62,1.73-4,1.17-5.82a7.11,7.11,0,0,0-3.2-4.08"/><path class="cls-1" d="M4.86,10A8.42,8.42,0,0,1,2.91,5.43c-.06-.73-.09-2.16-.09-2.16a6.52,6.52,0,0,0-.64,7.92c.95,1.54,2.6,2.13,4,3.13a10.35,10.35,0,0,1,3.24,4,8.18,8.18,0,0,1,.7,3c1.27-3.29.56-5.72-1.72-8.32-.5-.65-3.06-2.59-3.51-3.09"/><path class="cls-1" d="M10.34,3.4h3v1h-3Zm6.47,3.79H12.48v-1h4.38S19,5.59,19,2.07H8.58V3.19C8.07,2.93,7.39,2.34,7.3,0L4.94,2.17c-.22,1.09-.55,4.52,3.14,7.68a11.08,11.08,0,0,1,4.52,8.68,5.08,5.08,0,0,0,2.53-3.68A4.23,4.23,0,0,0,14,11.22c-.13-.14-.62-.56-.62-.56,3.15.52,3,2.38,3.15,3.19A16.83,16.83,0,0,0,18.9,9.34c.76-2.38-2.09-2.15-2.09-2.15"/><path class="cls-2" d="M39.13,21.75V3.87a1.21,1.21,0,0,0-1.21-1.21H34.27a.17.17,0,0,0,0,.34,1.5,1.5,0,0,1,1.51,1.51v17A1.21,1.21,0,0,0,37,22.76H47.58l.29-1Z"/><path class="cls-2" d="M58.59,12.72l2-8.12,2,8.12Zm11.55,9.87a.23.23,0,0,0-.21-.17A2.07,2.07,0,0,1,68,20.92l-4.26-17a1.64,1.64,0,0,0-1.5-1.21H60.1l-5,20.1h1l2.26-9H62.9l2,7.83a1.64,1.64,0,0,0,1.5,1.21H70a.13.13,0,0,0,.13-.17"/><path class="cls-2" d="M75.88,2.83a.25.25,0,0,0,.21.17A2.06,2.06,0,0,1,78,4.51l4.26,17a1.65,1.65,0,0,0,1.51,1.21h2.18l5-20.1h-1L85.41,20.82,81.17,3.87a1.65,1.65,0,0,0-1.51-1.21H76a.13.13,0,0,0-.13.17"/><path class="cls-2" d="M99.4,2.83a.23.23,0,0,0,.21.17,2,2,0,0,1,1.88,1.51l4.27,17a1.64,1.64,0,0,0,1.5,1.21h2.18l5-20.1h-1l-4.54,18.16L104.68,3.87a1.64,1.64,0,0,0-1.5-1.21H99.53a.13.13,0,0,0-.13.17"/><path class="cls-2" d="M125,21.09v.47a1.21,1.21,0,0,0,1.2,1.21h3.65a.17.17,0,0,0,0-.34,1.51,1.51,0,0,1-1.51-1.51V3.86a1.2,1.2,0,0,0-1.2-1.2h-3.65a.17.17,0,0,0-.17.16.17.17,0,0,0,.17.17A1.52,1.52,0,0,1,125,4.5Z"/></g></g></svg>